<mxfile host="app.diagrams.net" modified="2024-04-17T12:03:09.041Z" agent="Mozilla/5.0 (Windows NT 10.0; Win64; x64) AppleWebKit/537.36 (KHTML, like Gecko) Chrome/123.0.0.0 Safari/537.36" etag="6r-EfoqCeIcxxKCx9WGL" version="24.0.5" type="device">
  <diagram name="Page-1" id="jCO7csRQvXoBTF9NxVAz">
    <mxGraphModel dx="2789" dy="1005" grid="0" gridSize="10" guides="1" tooltips="1" connect="1" arrows="1" fold="1" page="0" pageScale="1" pageWidth="850" pageHeight="1100" background="#000000" math="0" shadow="1">
      <root>
        <mxCell id="0" />
        <mxCell id="1" parent="0" />
        <mxCell id="WM9DuWIwhgsLqCtcMtt6-1" style="edgeStyle=orthogonalEdgeStyle;rounded=0;orthogonalLoop=1;jettySize=auto;html=1;exitX=0.5;exitY=0;exitDx=0;exitDy=0;exitPerimeter=0;entryX=0;entryY=0.5;entryDx=0;entryDy=0;" parent="1" source="WM9DuWIwhgsLqCtcMtt6-6" target="WM9DuWIwhgsLqCtcMtt6-7" edge="1">
          <mxGeometry relative="1" as="geometry" />
        </mxCell>
        <mxCell id="WM9DuWIwhgsLqCtcMtt6-2" style="edgeStyle=orthogonalEdgeStyle;rounded=0;orthogonalLoop=1;jettySize=auto;html=1;exitX=0.75;exitY=0.1;exitDx=0;exitDy=0;exitPerimeter=0;entryX=0;entryY=0.25;entryDx=0;entryDy=0;" parent="1" source="WM9DuWIwhgsLqCtcMtt6-6" target="WM9DuWIwhgsLqCtcMtt6-8" edge="1">
          <mxGeometry relative="1" as="geometry">
            <Array as="points">
              <mxPoint x="100" y="772" />
              <mxPoint x="100" y="415" />
            </Array>
          </mxGeometry>
        </mxCell>
        <mxCell id="WM9DuWIwhgsLqCtcMtt6-3" style="edgeStyle=orthogonalEdgeStyle;rounded=0;orthogonalLoop=1;jettySize=auto;html=1;exitX=1;exitY=0.3333333333333333;exitDx=0;exitDy=0;exitPerimeter=0;entryX=0;entryY=0.75;entryDx=0;entryDy=0;" parent="1" source="WM9DuWIwhgsLqCtcMtt6-6" target="WM9DuWIwhgsLqCtcMtt6-12" edge="1">
          <mxGeometry relative="1" as="geometry">
            <Array as="points">
              <mxPoint x="140" y="788" />
              <mxPoint x="140" y="555" />
            </Array>
          </mxGeometry>
        </mxCell>
        <mxCell id="WM9DuWIwhgsLqCtcMtt6-4" style="edgeStyle=orthogonalEdgeStyle;rounded=0;orthogonalLoop=1;jettySize=auto;html=1;exitX=0.5;exitY=0.5;exitDx=0;exitDy=0;exitPerimeter=0;entryX=0;entryY=0.75;entryDx=0;entryDy=0;" parent="1" source="WM9DuWIwhgsLqCtcMtt6-6" target="WM9DuWIwhgsLqCtcMtt6-13" edge="1">
          <mxGeometry relative="1" as="geometry">
            <Array as="points">
              <mxPoint x="170" y="800" />
              <mxPoint x="170" y="675" />
            </Array>
          </mxGeometry>
        </mxCell>
        <mxCell id="WM9DuWIwhgsLqCtcMtt6-5" style="edgeStyle=orthogonalEdgeStyle;rounded=0;orthogonalLoop=1;jettySize=auto;html=1;exitX=1;exitY=1;exitDx=0;exitDy=0;exitPerimeter=0;" parent="1" source="WM9DuWIwhgsLqCtcMtt6-6" target="WM9DuWIwhgsLqCtcMtt6-9" edge="1">
          <mxGeometry relative="1" as="geometry" />
        </mxCell>
        <mxCell id="WM9DuWIwhgsLqCtcMtt6-6" value="CUSTOMER" style="shape=umlActor;verticalLabelPosition=bottom;verticalAlign=top;html=1;outlineConnect=0;" parent="1" vertex="1">
          <mxGeometry x="40" y="765" width="40" height="70" as="geometry" />
        </mxCell>
        <mxCell id="WM9DuWIwhgsLqCtcMtt6-7" value="LOGIN" style="rounded=1;whiteSpace=wrap;html=1;arcSize=40;fontColor=#000000;fillColor=#ffffc0;strokeColor=#ff0000;" parent="1" vertex="1">
          <mxGeometry x="320" y="285" width="120" height="40" as="geometry" />
        </mxCell>
        <mxCell id="WM9DuWIwhgsLqCtcMtt6-8" value="Add Category" style="rounded=1;whiteSpace=wrap;html=1;arcSize=40;fontColor=#000000;fillColor=#ffffc0;strokeColor=#ff0000;" parent="1" vertex="1">
          <mxGeometry x="320" y="405" width="120" height="40" as="geometry" />
        </mxCell>
        <mxCell id="WM9DuWIwhgsLqCtcMtt6-9" value="Manage Order" style="rounded=1;whiteSpace=wrap;html=1;arcSize=40;fontColor=#000000;fillColor=#ffffc0;strokeColor=#ff0000;" parent="1" vertex="1">
          <mxGeometry x="320" y="765" width="120" height="40" as="geometry" />
        </mxCell>
        <mxCell id="WM9DuWIwhgsLqCtcMtt6-10" value="Registration" style="rounded=1;whiteSpace=wrap;html=1;arcSize=40;fontColor=#000000;fillColor=#ffffc0;strokeColor=#ff0000;" parent="1" vertex="1">
          <mxGeometry x="320" y="885" width="120" height="40" as="geometry" />
        </mxCell>
        <mxCell id="WM9DuWIwhgsLqCtcMtt6-11" value="View Item" style="rounded=1;whiteSpace=wrap;html=1;arcSize=40;fontColor=#000000;fillColor=#ffffc0;strokeColor=#ff0000;" parent="1" vertex="1">
          <mxGeometry x="320" y="1005" width="120" height="40" as="geometry" />
        </mxCell>
        <mxCell id="WM9DuWIwhgsLqCtcMtt6-12" value="Add Item" style="rounded=1;whiteSpace=wrap;html=1;arcSize=40;fontColor=#000000;fillColor=#ffffc0;strokeColor=#ff0000;" parent="1" vertex="1">
          <mxGeometry x="320" y="525" width="120" height="40" as="geometry" />
        </mxCell>
        <mxCell id="WM9DuWIwhgsLqCtcMtt6-13" value="&lt;blockquote style=&quot;margin: 0 0 0 40px; border: none; padding: 0px;&quot;&gt;Manage Items&lt;/blockquote&gt;" style="rounded=1;whiteSpace=wrap;html=1;arcSize=40;fontColor=#000000;fillColor=#ffffc0;strokeColor=#ff0000;" parent="1" vertex="1">
          <mxGeometry x="320" y="645" width="120" height="40" as="geometry" />
        </mxCell>
        <mxCell id="WM9DuWIwhgsLqCtcMtt6-14" style="edgeStyle=orthogonalEdgeStyle;rounded=0;orthogonalLoop=1;jettySize=auto;html=1;exitX=0.5;exitY=0;exitDx=0;exitDy=0;exitPerimeter=0;entryX=1;entryY=0.25;entryDx=0;entryDy=0;" parent="1" source="WM9DuWIwhgsLqCtcMtt6-20" target="WM9DuWIwhgsLqCtcMtt6-7" edge="1">
          <mxGeometry relative="1" as="geometry" />
        </mxCell>
        <mxCell id="WM9DuWIwhgsLqCtcMtt6-15" style="edgeStyle=orthogonalEdgeStyle;rounded=0;orthogonalLoop=1;jettySize=auto;html=1;exitX=0;exitY=0.3333333333333333;exitDx=0;exitDy=0;exitPerimeter=0;entryX=1;entryY=0.5;entryDx=0;entryDy=0;" parent="1" source="WM9DuWIwhgsLqCtcMtt6-20" target="WM9DuWIwhgsLqCtcMtt6-10" edge="1">
          <mxGeometry relative="1" as="geometry">
            <Array as="points">
              <mxPoint x="540" y="788" />
              <mxPoint x="540" y="905" />
            </Array>
          </mxGeometry>
        </mxCell>
        <mxCell id="WM9DuWIwhgsLqCtcMtt6-16" style="edgeStyle=orthogonalEdgeStyle;rounded=0;orthogonalLoop=1;jettySize=auto;html=1;exitX=0.5;exitY=0.5;exitDx=0;exitDy=0;exitPerimeter=0;entryX=1;entryY=0.5;entryDx=0;entryDy=0;" parent="1" source="WM9DuWIwhgsLqCtcMtt6-20" target="WM9DuWIwhgsLqCtcMtt6-11" edge="1">
          <mxGeometry relative="1" as="geometry" />
        </mxCell>
        <mxCell id="WM9DuWIwhgsLqCtcMtt6-17" style="edgeStyle=orthogonalEdgeStyle;rounded=0;orthogonalLoop=1;jettySize=auto;html=1;exitX=0.5;exitY=0.5;exitDx=0;exitDy=0;exitPerimeter=0;entryX=1;entryY=0.5;entryDx=0;entryDy=0;" parent="1" source="WM9DuWIwhgsLqCtcMtt6-20" target="WM9DuWIwhgsLqCtcMtt6-21" edge="1">
          <mxGeometry relative="1" as="geometry">
            <Array as="points">
              <mxPoint x="740" y="815" />
              <mxPoint x="640" y="815" />
              <mxPoint x="640" y="1145" />
            </Array>
          </mxGeometry>
        </mxCell>
        <mxCell id="WM9DuWIwhgsLqCtcMtt6-18" style="edgeStyle=orthogonalEdgeStyle;rounded=0;orthogonalLoop=1;jettySize=auto;html=1;exitX=0;exitY=1;exitDx=0;exitDy=0;exitPerimeter=0;entryX=1;entryY=0.5;entryDx=0;entryDy=0;" parent="1" source="WM9DuWIwhgsLqCtcMtt6-20" target="WM9DuWIwhgsLqCtcMtt6-22" edge="1">
          <mxGeometry relative="1" as="geometry" />
        </mxCell>
        <mxCell id="WM9DuWIwhgsLqCtcMtt6-19" style="edgeStyle=orthogonalEdgeStyle;rounded=0;orthogonalLoop=1;jettySize=auto;html=1;exitX=1;exitY=1;exitDx=0;exitDy=0;exitPerimeter=0;entryX=1;entryY=0.25;entryDx=0;entryDy=0;" parent="1" source="WM9DuWIwhgsLqCtcMtt6-20" target="WM9DuWIwhgsLqCtcMtt6-23" edge="1">
          <mxGeometry relative="1" as="geometry" />
        </mxCell>
        <mxCell id="WM9DuWIwhgsLqCtcMtt6-20" value="ADMIN" style="shape=umlActor;verticalLabelPosition=bottom;verticalAlign=top;html=1;outlineConnect=0;" parent="1" vertex="1">
          <mxGeometry x="720" y="765" width="40" height="70" as="geometry" />
        </mxCell>
        <mxCell id="WM9DuWIwhgsLqCtcMtt6-21" value="Make Order" style="rounded=1;whiteSpace=wrap;html=1;arcSize=40;fontColor=#000000;fillColor=#ffffc0;strokeColor=#ff0000;" parent="1" vertex="1">
          <mxGeometry x="320" y="1125" width="120" height="40" as="geometry" />
        </mxCell>
        <mxCell id="WM9DuWIwhgsLqCtcMtt6-22" value="Make Payment" style="rounded=1;whiteSpace=wrap;html=1;arcSize=40;fontColor=#000000;fillColor=#ffffc0;strokeColor=#ff0000;" parent="1" vertex="1">
          <mxGeometry x="320" y="1245" width="120" height="40" as="geometry" />
        </mxCell>
        <mxCell id="WM9DuWIwhgsLqCtcMtt6-23" value="Change Password" style="rounded=1;whiteSpace=wrap;html=1;arcSize=40;fontColor=#000000;fillColor=#ffffc0;strokeColor=#ff0000;" parent="1" vertex="1">
          <mxGeometry x="320" y="1365" width="120" height="40" as="geometry" />
        </mxCell>
        <mxCell id="WM9DuWIwhgsLqCtcMtt6-24" value="&lt;font style=&quot;font-size: 34px;&quot;&gt;&lt;b&gt;&lt;i&gt;&lt;u&gt;UseCase Diagram&lt;/u&gt;&lt;/i&gt;&lt;/b&gt;&lt;/font&gt;" style="text;html=1;align=center;verticalAlign=middle;resizable=0;points=[];autosize=1;strokeColor=none;fillColor=none;" parent="1" vertex="1">
          <mxGeometry x="275" y="118" width="310" height="50" as="geometry" />
        </mxCell>
        <mxCell id="22ybMLmx077lhxHrLCE8-1" value="CUSTOMER" style="shape=umlActor;verticalLabelPosition=bottom;verticalAlign=top;html=1;outlineConnect=0;fontColor=#FFFFFF;strokeColor=#FFFFFF;" parent="1" vertex="1">
          <mxGeometry x="-176" y="2243" width="40" height="70" as="geometry" />
        </mxCell>
        <mxCell id="22ybMLmx077lhxHrLCE8-2" value="Service Authentication" style="shape=umlActor;verticalLabelPosition=bottom;verticalAlign=top;html=1;outlineConnect=0;fontColor=#FFFFFF;strokeColor=#FFFFFF;" parent="1" vertex="1">
          <mxGeometry x="1024" y="1959" width="40" height="79" as="geometry" />
        </mxCell>
        <mxCell id="22ybMLmx077lhxHrLCE8-3" value="&lt;font style=&quot;font-size: 34px;&quot;&gt;&lt;b&gt;&lt;i&gt;&lt;u&gt;UseCase Diagram&lt;/u&gt;&lt;/i&gt;&lt;/b&gt;&lt;/font&gt;" style="text;html=1;align=center;verticalAlign=middle;resizable=0;points=[];autosize=1;strokeColor=#FFFFFF;fillColor=none;fontColor=#FFFFFF;" parent="1" vertex="1">
          <mxGeometry x="320" y="1648" width="310" height="50" as="geometry" />
        </mxCell>
        <mxCell id="22ybMLmx077lhxHrLCE8-4" value="New User" style="shape=umlActor;verticalLabelPosition=bottom;verticalAlign=top;html=1;outlineConnect=0;fontColor=#FFFFFF;strokeColor=#FFFFFF;" parent="1" vertex="1">
          <mxGeometry x="-56" y="2118" width="40" height="70" as="geometry" />
        </mxCell>
        <mxCell id="22ybMLmx077lhxHrLCE8-5" value="Existing User" style="shape=umlActor;verticalLabelPosition=bottom;verticalAlign=top;html=1;outlineConnect=0;fontColor=#FFFFFF;strokeColor=#FFFFFF;" parent="1" vertex="1">
          <mxGeometry x="-56" y="2358" width="40" height="70" as="geometry" />
        </mxCell>
        <mxCell id="22ybMLmx077lhxHrLCE8-6" value="Paypal" style="shape=umlActor;verticalLabelPosition=bottom;verticalAlign=top;html=1;outlineConnect=0;fontColor=#FFFFFF;strokeColor=#FFFFFF;" parent="1" vertex="1">
          <mxGeometry x="1024" y="2438" width="40" height="80" as="geometry" />
        </mxCell>
        <mxCell id="22ybMLmx077lhxHrLCE8-7" value="Identity Provider" style="shape=umlActor;verticalLabelPosition=bottom;verticalAlign=top;html=1;outlineConnect=0;fontColor=#FFFFFF;strokeColor=#FFFFFF;" parent="1" vertex="1">
          <mxGeometry x="1024" y="2118" width="40" height="80" as="geometry" />
        </mxCell>
        <mxCell id="22ybMLmx077lhxHrLCE8-8" value="Credit Payment&lt;div&gt;service&lt;/div&gt;" style="shape=umlActor;verticalLabelPosition=bottom;verticalAlign=top;html=1;outlineConnect=0;fontColor=#FFFFFF;strokeColor=#FFFFFF;" parent="1" vertex="1">
          <mxGeometry x="1024" y="2278" width="40" height="80" as="geometry" />
        </mxCell>
        <mxCell id="22ybMLmx077lhxHrLCE8-9" value="&lt;font style=&quot;font-size: 16px;&quot;&gt;Make purchase&lt;/font&gt;" style="ellipse;whiteSpace=wrap;html=1;fillColor=#000000;strokeColor=#FFFFFF;fontColor=#FFFFFF;" parent="1" vertex="1">
          <mxGeometry x="384" y="2238" width="120" height="80" as="geometry" />
        </mxCell>
        <mxCell id="22ybMLmx077lhxHrLCE8-10" value="&lt;span style=&quot;font-size: 16px;&quot;&gt;Customer logout&lt;/span&gt;" style="ellipse;whiteSpace=wrap;html=1;fillColor=#000000;strokeColor=#FFFFFF;fontColor=#FFFFFF;" parent="1" vertex="1">
          <mxGeometry x="384" y="2478" width="120" height="80" as="geometry" />
        </mxCell>
        <mxCell id="22ybMLmx077lhxHrLCE8-11" value="&lt;font style=&quot;font-size: 16px;&quot;&gt;Ceckout&lt;/font&gt;" style="ellipse;whiteSpace=wrap;html=1;fillColor=#000000;strokeColor=#FFFFFF;fontColor=#FFFFFF;" parent="1" vertex="1">
          <mxGeometry x="384" y="2358" width="120" height="80" as="geometry" />
        </mxCell>
        <mxCell id="22ybMLmx077lhxHrLCE8-12" value="&lt;span style=&quot;font-size: 16px;&quot;&gt;Customer Register&lt;/span&gt;" style="ellipse;whiteSpace=wrap;html=1;fillColor=#000000;strokeColor=#FFFFFF;fontColor=#FFFFFF;" parent="1" vertex="1">
          <mxGeometry x="744" y="1879" width="120" height="80" as="geometry" />
        </mxCell>
        <mxCell id="22ybMLmx077lhxHrLCE8-13" value="&lt;font style=&quot;font-size: 16px;&quot;&gt;View items&lt;/font&gt;" style="ellipse;whiteSpace=wrap;html=1;fillColor=#000000;strokeColor=#FFFFFF;fontColor=#FFFFFF;" parent="1" vertex="1">
          <mxGeometry x="384" y="2118" width="120" height="80" as="geometry" />
        </mxCell>
        <mxCell id="22ybMLmx077lhxHrLCE8-14" value="&lt;font style=&quot;font-size: 16px;&quot;&gt;Add item to cart&lt;/font&gt;" style="ellipse;whiteSpace=wrap;html=1;fillColor=#000000;strokeColor=#FFFFFF;fontColor=#FFFFFF;" parent="1" vertex="1">
          <mxGeometry x="384" y="1998" width="120" height="80" as="geometry" />
        </mxCell>
        <mxCell id="22ybMLmx077lhxHrLCE8-15" value="&lt;font style=&quot;font-size: 16px;&quot;&gt;Edit item in cart&lt;/font&gt;" style="ellipse;whiteSpace=wrap;html=1;fillColor=#000000;strokeColor=#FFFFFF;fontColor=#FFFFFF;" parent="1" vertex="1">
          <mxGeometry x="384" y="1879" width="120" height="80" as="geometry" />
        </mxCell>
        <mxCell id="22ybMLmx077lhxHrLCE8-16" value="&lt;font style=&quot;font-size: 16px;&quot;&gt;Delete item in cart&lt;/font&gt;" style="ellipse;whiteSpace=wrap;html=1;fillColor=#000000;strokeColor=#FFFFFF;fontColor=#FFFFFF;" parent="1" vertex="1">
          <mxGeometry x="384" y="1758" width="120" height="80" as="geometry" />
        </mxCell>
        <mxCell id="22ybMLmx077lhxHrLCE8-17" value="&lt;font style=&quot;font-size: 16px;&quot;&gt;Manage Cart&lt;/font&gt;" style="ellipse;whiteSpace=wrap;html=1;fillColor=#000000;strokeColor=#FFFFFF;fontColor=#FFFFFF;" parent="1" vertex="1">
          <mxGeometry x="94" y="1879" width="120" height="80" as="geometry" />
        </mxCell>
        <mxCell id="22ybMLmx077lhxHrLCE8-18" style="edgeStyle=orthogonalEdgeStyle;rounded=0;orthogonalLoop=1;jettySize=auto;html=1;exitX=0.5;exitY=0.5;exitDx=0;exitDy=0;exitPerimeter=0;entryX=0;entryY=0.3333333333333333;entryDx=0;entryDy=0;entryPerimeter=0;fontColor=#FFFFFF;strokeColor=#FFFFFF;" parent="1" source="22ybMLmx077lhxHrLCE8-1" target="22ybMLmx077lhxHrLCE8-4" edge="1">
          <mxGeometry relative="1" as="geometry" />
        </mxCell>
        <mxCell id="22ybMLmx077lhxHrLCE8-19" style="edgeStyle=orthogonalEdgeStyle;rounded=0;orthogonalLoop=1;jettySize=auto;html=1;exitX=0.5;exitY=0.5;exitDx=0;exitDy=0;exitPerimeter=0;entryX=0;entryY=0.3333333333333333;entryDx=0;entryDy=0;entryPerimeter=0;fontColor=#FFFFFF;strokeColor=#FFFFFF;" parent="1" source="22ybMLmx077lhxHrLCE8-1" target="22ybMLmx077lhxHrLCE8-5" edge="1">
          <mxGeometry relative="1" as="geometry" />
        </mxCell>
        <object label="" id="22ybMLmx077lhxHrLCE8-20">
          <mxCell style="whiteSpace=wrap;html=1;aspect=fixed;fillColor=none;textShadow=1;movable=1;resizable=1;rotatable=1;deletable=1;editable=1;locked=0;connectable=1;align=center;fontColor=#FFFFFF;strokeColor=#FFFFFF;" parent="1" vertex="1">
            <mxGeometry x="28" y="1711" width="913" height="913" as="geometry" />
          </mxCell>
        </object>
        <mxCell id="22ybMLmx077lhxHrLCE8-21" value="" style="endArrow=none;html=1;rounded=0;entryX=1;entryY=0.3333333333333333;entryDx=0;entryDy=0;entryPerimeter=0;exitX=0;exitY=1;exitDx=0;exitDy=0;fontColor=#FFFFFF;strokeColor=#FFFFFF;" parent="1" source="22ybMLmx077lhxHrLCE8-17" target="22ybMLmx077lhxHrLCE8-4" edge="1">
          <mxGeometry width="50" height="50" relative="1" as="geometry">
            <mxPoint x="464" y="2278" as="sourcePoint" />
            <mxPoint x="484" y="2218" as="targetPoint" />
          </mxGeometry>
        </mxCell>
        <mxCell id="22ybMLmx077lhxHrLCE8-22" value="" style="endArrow=none;html=1;rounded=0;exitX=1;exitY=0.3333333333333333;exitDx=0;exitDy=0;exitPerimeter=0;entryX=0;entryY=0.5;entryDx=0;entryDy=0;fontColor=#FFFFFF;strokeColor=#FFFFFF;" parent="1" source="22ybMLmx077lhxHrLCE8-4" target="22ybMLmx077lhxHrLCE8-13" edge="1">
          <mxGeometry width="50" height="50" relative="1" as="geometry">
            <mxPoint x="464" y="2278" as="sourcePoint" />
            <mxPoint x="514" y="2228" as="targetPoint" />
          </mxGeometry>
        </mxCell>
        <mxCell id="22ybMLmx077lhxHrLCE8-23" value="" style="endArrow=none;html=1;rounded=0;entryX=0;entryY=0.5;entryDx=0;entryDy=0;exitX=1;exitY=0.3333333333333333;exitDx=0;exitDy=0;exitPerimeter=0;fontColor=#FFFFFF;strokeColor=#FFFFFF;" parent="1" source="22ybMLmx077lhxHrLCE8-4" target="22ybMLmx077lhxHrLCE8-9" edge="1">
          <mxGeometry width="50" height="50" relative="1" as="geometry">
            <mxPoint x="-6" y="2148" as="sourcePoint" />
            <mxPoint x="394" y="2168" as="targetPoint" />
          </mxGeometry>
        </mxCell>
        <mxCell id="22ybMLmx077lhxHrLCE8-24" value="" style="endArrow=none;html=1;rounded=0;exitX=1;exitY=0.3333333333333333;exitDx=0;exitDy=0;exitPerimeter=0;entryX=0;entryY=0.5;entryDx=0;entryDy=0;fontColor=#FFFFFF;strokeColor=#FFFFFF;" parent="1" source="22ybMLmx077lhxHrLCE8-5" target="22ybMLmx077lhxHrLCE8-13" edge="1">
          <mxGeometry width="50" height="50" relative="1" as="geometry">
            <mxPoint x="4" y="2161" as="sourcePoint" />
            <mxPoint x="394" y="2288" as="targetPoint" />
          </mxGeometry>
        </mxCell>
        <mxCell id="22ybMLmx077lhxHrLCE8-25" value="" style="endArrow=none;html=1;rounded=0;entryX=0;entryY=0.5;entryDx=0;entryDy=0;fontColor=#FFFFFF;strokeColor=#FFFFFF;" parent="1" target="22ybMLmx077lhxHrLCE8-10" edge="1">
          <mxGeometry width="50" height="50" relative="1" as="geometry">
            <mxPoint x="-16" y="2378" as="sourcePoint" />
            <mxPoint x="404" y="2298" as="targetPoint" />
          </mxGeometry>
        </mxCell>
        <mxCell id="22ybMLmx077lhxHrLCE8-26" value="" style="endArrow=none;html=1;rounded=0;exitX=1;exitY=0.5;exitDx=0;exitDy=0;entryX=0;entryY=0.3333333333333333;entryDx=0;entryDy=0;entryPerimeter=0;fontColor=#FFFFFF;strokeColor=#FFFFFF;" parent="1" source="22ybMLmx077lhxHrLCE8-12" target="22ybMLmx077lhxHrLCE8-2" edge="1">
          <mxGeometry width="50" height="50" relative="1" as="geometry">
            <mxPoint x="844" y="1901" as="sourcePoint" />
            <mxPoint x="1234" y="2028" as="targetPoint" />
          </mxGeometry>
        </mxCell>
        <mxCell id="22ybMLmx077lhxHrLCE8-27" value="" style="endArrow=none;html=1;rounded=0;exitX=1;exitY=0.5;exitDx=0;exitDy=0;entryX=0;entryY=0.3333333333333333;entryDx=0;entryDy=0;entryPerimeter=0;fontColor=#FFFFFF;strokeColor=#FFFFFF;" parent="1" source="22ybMLmx077lhxHrLCE8-13" target="22ybMLmx077lhxHrLCE8-2" edge="1">
          <mxGeometry width="50" height="50" relative="1" as="geometry">
            <mxPoint x="624" y="2048" as="sourcePoint" />
            <mxPoint x="1014" y="2175" as="targetPoint" />
          </mxGeometry>
        </mxCell>
        <mxCell id="22ybMLmx077lhxHrLCE8-28" value="" style="endArrow=none;html=1;rounded=0;exitX=1;exitY=0.3333333333333333;exitDx=0;exitDy=0;exitPerimeter=0;entryX=0;entryY=0.3333333333333333;entryDx=0;entryDy=0;entryPerimeter=0;fontColor=#FFFFFF;strokeColor=#FFFFFF;" parent="1" target="22ybMLmx077lhxHrLCE8-7" edge="1">
          <mxGeometry width="50" height="50" relative="1" as="geometry">
            <mxPoint x="504" y="2158" as="sourcePoint" />
            <mxPoint x="894" y="2285" as="targetPoint" />
          </mxGeometry>
        </mxCell>
        <mxCell id="22ybMLmx077lhxHrLCE8-29" value="" style="endArrow=none;html=1;rounded=0;exitX=1;exitY=0.5;exitDx=0;exitDy=0;entryX=0;entryY=0.3333333333333333;entryDx=0;entryDy=0;entryPerimeter=0;fontColor=#FFFFFF;strokeColor=#FFFFFF;" parent="1" source="22ybMLmx077lhxHrLCE8-9" target="22ybMLmx077lhxHrLCE8-7" edge="1">
          <mxGeometry width="50" height="50" relative="1" as="geometry">
            <mxPoint x="504" y="2238" as="sourcePoint" />
            <mxPoint x="894" y="2365" as="targetPoint" />
          </mxGeometry>
        </mxCell>
        <mxCell id="22ybMLmx077lhxHrLCE8-30" value="" style="endArrow=none;html=1;rounded=0;exitX=1;exitY=0.5;exitDx=0;exitDy=0;entryX=0;entryY=0.3333333333333333;entryDx=0;entryDy=0;entryPerimeter=0;fontColor=#FFFFFF;strokeColor=#FFFFFF;" parent="1" source="22ybMLmx077lhxHrLCE8-11" target="22ybMLmx077lhxHrLCE8-7" edge="1">
          <mxGeometry width="50" height="50" relative="1" as="geometry">
            <mxPoint x="534" y="2318" as="sourcePoint" />
            <mxPoint x="1014" y="2268" as="targetPoint" />
          </mxGeometry>
        </mxCell>
        <mxCell id="22ybMLmx077lhxHrLCE8-31" value="" style="endArrow=none;html=1;rounded=0;exitX=1;exitY=0.5;exitDx=0;exitDy=0;entryX=0;entryY=0.3333333333333333;entryDx=0;entryDy=0;entryPerimeter=0;fontColor=#FFFFFF;strokeColor=#FFFFFF;" parent="1" source="22ybMLmx077lhxHrLCE8-11" target="22ybMLmx077lhxHrLCE8-8" edge="1">
          <mxGeometry width="50" height="50" relative="1" as="geometry">
            <mxPoint x="554" y="2358" as="sourcePoint" />
            <mxPoint x="944" y="2485" as="targetPoint" />
          </mxGeometry>
        </mxCell>
        <mxCell id="22ybMLmx077lhxHrLCE8-32" value="" style="endArrow=none;html=1;rounded=0;entryX=0;entryY=0.3333333333333333;entryDx=0;entryDy=0;entryPerimeter=0;exitX=1;exitY=0.5;exitDx=0;exitDy=0;fontColor=#FFFFFF;strokeColor=#FFFFFF;" parent="1" source="22ybMLmx077lhxHrLCE8-11" target="22ybMLmx077lhxHrLCE8-6" edge="1">
          <mxGeometry width="50" height="50" relative="1" as="geometry">
            <mxPoint x="534" y="2428" as="sourcePoint" />
            <mxPoint x="894" y="2525" as="targetPoint" />
          </mxGeometry>
        </mxCell>
        <mxCell id="22ybMLmx077lhxHrLCE8-33" value="&lt;font style=&quot;font-size: 50px;&quot;&gt;OR&lt;/font&gt;" style="text;html=1;align=center;verticalAlign=middle;resizable=0;points=[];autosize=1;strokeColor=none;fillColor=none;" parent="1" vertex="1">
          <mxGeometry x="350" y="1458" width="100" height="70" as="geometry" />
        </mxCell>
      </root>
    </mxGraphModel>
  </diagram>
</mxfile>
